<svg xmlns="http://www.w3.org/2000/svg" version="1.1" x="0" y="0" width="200" height="200">
<path stroke-linejoin="round" d="m176.5 78.29v0.08l-11 0.48-0.1-15.87c-0.1-1.78-1.4-3.11-2.9-2.97l-46 4.02c-1.5 0.14-2.8 1.69-2.8 3.46l0.2 13.58-19.3 0.83v47.9l81.9 8.5 16.4-12.5v-43.01l-16.4-4.5zm0 0" stroke="#ff8000" stroke-linecap="round" stroke-width="13.33" fill="none"/>
<g stroke-width="1.01" stroke="#000">
<path d="m114 83.56-0.2-16.07c0-1.77 1.2-3.32 2.8-3.46l27.1-2.37 18.8-1.65c1.6-0.14 2.9 1.19 2.9 2.97l0.2 20.58z" stroke-width="1.01" fill="#414042"/>
<path d="m118.9 83.56-0.6-11.08c0-1.67 1-3.12 2.3-3.23l36.8-3.23c1.3-0.11 2.4 1.16 2.4 2.84l0.5 14.7zm41.4 9.8"/>
<path fill="#bebebe" d="m176.5 138.3 15.5-11.7c0.5-0.5 1-1.4 1-2.1v-40.45c0-0.69-0.6-1.41-1.2-1.59l-15.3-4.17"/>
<path fill="#dcdcdc" d="m94.64 83.94v44.66c0 0.6 0.57 1.3 1.26 1.4l79.3 8.8c0.7 0 1.3-0.5 1.3-1.2v-53.66zm1.26-1.26"/>
<path fill="#414042" d="m94.64 87.79 81.86-2.52v-6.9l-81.86 3.53z"/>
<path fill="#ed1c24" d="m146 79.45-0.4 4.26-27 1.2v-3.6l2.5-5.42 24.7-1.13 1.3 4.63"/>
<path fill="none" d="m144.8 83.58-1.3-3.84-24.9 1.31"/>
<path fill="#fff" d="m143.7 79.74 2.1-4.98"/>
</g>
<g stroke-width="1.01" stroke="#000" fill="none">
<path d="m139.8 75.04-1.9 4.97 0.9 4.46"/>
<path d="m132.8 75.04-1.8 5.14 0.4 4.23"/>
<path d="m126.6 75.63-2.2 5.04v3.74"/>
</g>
<ellipse rx="9.29" ry="14.75" stroke="#414042" cy="108.3" cx="108" stroke-width="3.78" fill="#646464"/>
<ellipse rx="11.72" ry="17.94" stroke="#414042" cy="109.7" cx="160.3" stroke-width="3.78" fill="#646464"/>
<g stroke="#000">
<g fill="#fff">
<ellipse rx="2.79" ry="4.43" cy="108.3" cx="108" stroke-width="1.01"/>
<ellipse rx="3.52" ry="5.38" cy="109.7" cx="160.3" stroke-width="1.01"/>
<path stroke-width="1.77" d="m122.4 100.9c-0.4 0.1-0.7 0.4-0.7 0.8v11.2c0 0.4 0.3 0.8 0.7 0.9l20.6 2.2c0.4 0.1 0.8-0.2 0.8-0.6v-14.9c0-0.4-0.4-0.69-0.8-0.67l-20.6 1.07z"/>
</g>
<ellipse rx="1.67" ry="2.66" cy="107.2" cx="127.3" stroke-width="1.01" fill="#58595b"/>
<ellipse rx="1.9" ry="2.91" cy="107.2" cx="136.9" stroke-width="1.01" fill="#58595b"/>
</g>
<g stroke-linejoin="round" stroke="#ff8000" stroke-linecap="round" stroke-width="7.42" fill="none">
<path d="m45.73 61.53-20.7 1.78-0.07 20.41c-0.8-0.36-1.7-0.57-2.65-0.57-3.25 0-5.88 2.41-5.88 5.39s2.63 5.4 5.88 5.4c3.26 0 5.89-2.42 5.89-5.4v-20.04l14.31-1.23v16.45c-0.8-0.36-1.7-0.57-2.65-0.57-3.25 0-5.88 2.41-5.88 5.39s2.63 5.4 5.88 5.4 5.89-2.42 5.89-5.4c0-0.1-0.01-0.21-0.01-0.32h0.01zm0.02 0.74"/>
<path d="m73.83 95.2-20.76-0.76-2.56 20.26c-0.75-0.5-1.61-0.8-2.56-0.9-3.22-0.4-6.13 1.7-6.5 4.6-0.36 3 1.96 5.7 5.19 6.1 3.22 0.4 6.13-1.7 6.5-4.6l2.44-19.92 14.35 0.52-2.01 16.3c-0.74-0.4-1.61-0.7-2.55-0.8-3.23-0.4-6.14 1.6-6.5 4.6-0.36 2.9 1.96 5.7 5.19 6.1 3.22 0.3 6.13-1.7 6.5-4.7 0.01-0.1 0.02-0.2 0.02-0.3h0.02zm-0.07 0.74"/>
<path d="m30.85 104.9-20.33 4.3 2.41 20.3c-0.83-0.3-1.75-0.4-2.69-0.3-3.23 0.4-5.55 3.2-5.18 6.1 0.36 3 3.27 5.1 6.5 4.7 3.22-0.4 5.54-3.2 5.18-6.1l-2.44-19.9 14.05-3 2 16.4c-0.83-0.3-1.75-0.4-2.69-0.3-3.23 0.4-5.55 3.1-5.18 6.1 0.36 2.9 3.27 5 6.49 4.6 3.23-0.4 5.55-3.1 5.19-6.1-0.01-0.1-0.03-0.2-0.05-0.3h0.01zm0.11 0.8"/>
</g>
<g fill="#000080">
<path d="m45.8 61.53-20.7 1.78-0.07 20.41c-0.8-0.36-1.69-0.57-2.64-0.57-3.25 0-5.89 2.41-5.89 5.39s2.64 5.4 5.89 5.4 5.88-2.42 5.88-5.4v-20.04l14.31-1.23v16.45c-0.8-0.36-1.69-0.57-2.64-0.57-3.26 0-5.89 2.41-5.89 5.39s2.64 5.4 5.89 5.4 5.88-2.42 5.88-5.4c0-0.1 0-0.21-0.01-0.32h0.01zm0.02 0.74"/>
<path d="m30.92 104.6-20.33 4.2 2.42 20.3c-0.84-0.3-1.75-0.4-2.7-0.2-3.22 0.4-5.54 3.1-5.18 6 0.36 3 3.27 5.1 6.5 4.7 3.22-0.4 5.55-3.1 5.18-6.1l-2.44-19.9 14.05-3 2 16.4c-0.83-0.3-1.75-0.4-2.69-0.3-3.22 0.4-5.55 3.1-5.18 6.1 0.36 3 3.27 5 6.5 4.6 3.22-0.4 5.54-3.1 5.18-6-0.01-0.2-0.03-0.3-0.05-0.4h0.01zm0.11 0.7"/>
<path d="m73.83 95.2-20.76-0.76-2.56 20.26c-0.75-0.5-1.61-0.8-2.56-0.9-3.22-0.4-6.13 1.7-6.5 4.6-0.36 3 1.96 5.7 5.19 6.1 3.22 0.4 6.13-1.7 6.5-4.6l2.44-19.92 14.35 0.52-2.01 16.3c-0.74-0.4-1.61-0.7-2.55-0.8-3.23-0.4-6.13 1.6-6.5 4.6-0.36 2.9 1.96 5.7 5.19 6.1 3.22 0.3 6.13-1.7 6.5-4.7 0.01-0.1 0.02-0.2 0.02-0.3h0.02zm-0.07 0.74"/>
</g>
</svg>
